<svg width="1140" height="342" viewBox="0 0 1140 342" fill="none" xmlns="http://www.w3.org/2000/svg">
<g clip-path="url(#clip0)">
<path d="M344 250C196.8 200 48.5 275 2.5 337.5L-56 410V-109H1163.5L1180.5 285.5C1128.9 214.7 929.5 208.207 821 250C712.5 291.793 491.2 300 344 250Z" fill="url(#paint0_linear)"/>
<path d="M261.054 78V150H283.23V125.712C283.23 120.816 285.63 118.128 287.934 118.128C290.238 118.128 292.446 120.624 292.446 125.616V150H314.622V127.728C314.622 114.288 311.55 101.04 294.846 101.04C290.43 101.04 286.398 102.864 283.23 105.744V78H261.054ZM321.302 126.192C321.302 139.344 329.462 151.824 348.374 151.824C362.87 151.824 369.878 142.8 369.974 142.8L360.854 130.896C358.55 134.16 354.902 135.888 351.35 135.888C347.99 135.888 344.918 134.352 343.382 130.8L370.55 127.728C370.454 118.8 366.998 100.56 348.566 100.56C329.654 100.56 321.302 112.944 321.302 126.192ZM342.902 120.528C343.862 116.4 346.358 114.384 348.758 114.384C351.062 114.384 353.366 116.304 353.846 119.76L342.902 120.528ZM376.731 102V124.272C376.731 137.712 379.803 150.96 396.507 150.96C401.499 150.96 405.243 148.656 408.123 145.392V148.176C408.123 151.728 406.971 157.584 399.099 157.584C390.267 157.584 382.299 150.864 382.299 150.864L377.595 167.28C377.691 167.184 382.683 174 399.291 174C416.091 174 430.299 169.872 430.299 148.752V102H408.123V126.288C408.123 131.184 405.723 133.872 403.419 133.872C401.115 133.872 398.907 131.376 398.907 126.384V102H376.731ZM433.426 159.024H445.138L455.602 137.424H439.282L433.426 159.024ZM480.153 102V150H502.329V102H480.153ZM492.153 97.008C507.705 97.008 507.129 75.312 492.153 75.312C476.217 75.312 475.545 97.008 492.153 97.008ZM508.947 104.4H520.659L531.123 82.8H514.803L508.947 104.4ZM536.012 124.944V150H558.188V125.04C558.188 120.336 560.012 118.032 561.836 118.032C563.66 118.032 565.484 120.336 565.484 125.04V150H587.66V125.04C587.66 120.336 589.484 118.032 591.308 118.032C593.132 118.032 594.956 120.336 594.956 125.04V150H617.132V124.944C617.132 107.952 604.268 99.504 591.404 99.504C586.124 99.504 580.94 100.944 576.62 103.632C572.204 100.944 567.02 99.504 561.836 99.504C548.876 99.504 536.012 107.952 536.012 124.944ZM643.007 141.744C649.823 148.848 658.943 152.4 667.583 152.4C681.503 152.4 694.175 143.28 694.175 125.52V82.8H671.999V122.16C671.999 128.592 670.367 132.624 665.183 132.624C658.271 132.624 654.239 125.904 654.239 125.904L643.007 141.744ZM700.896 126.192C700.896 138.864 708 151.44 722.208 151.44C727.104 151.44 731.136 149.52 734.4 146.64V150H756.576V102H734.4V105.456C731.136 102.672 727.104 100.944 722.208 100.944C707.904 100.944 700.896 113.616 700.896 126.192ZM734.4 126.192C734.4 131.856 731.424 134.64 728.448 134.64C725.376 134.64 722.208 131.76 722.208 126.192C722.208 120.816 725.376 117.84 728.544 117.84C731.52 117.84 734.4 120.528 734.4 126.192ZM687.397 164.496C694.117 184.56 716.581 196.656 738.277 196.656C780.709 196.656 800.197 152.496 816.997 102H794.725C793.381 109.296 791.749 116.592 789.637 123.696L783.685 102H761.413L779.365 148.752C770.533 164.592 757.861 176.784 739.717 176.784C726.085 176.784 711.205 170.16 706.693 155.856L687.397 164.496ZM820.802 126.192C820.802 139.344 828.962 151.824 847.874 151.824C862.37 151.824 869.378 142.8 869.474 142.8L860.354 130.896C858.05 134.16 854.402 135.888 850.85 135.888C847.49 135.888 844.418 134.352 842.882 130.8L870.05 127.728C869.954 118.8 866.498 100.56 848.066 100.56C829.154 100.56 820.802 112.944 820.802 126.192ZM842.402 120.528C843.362 116.4 845.858 114.384 848.258 114.384C850.562 114.384 852.866 116.304 853.346 119.76L842.402 120.528ZM879.207 128.88H894.471L897.927 82.8H875.751L879.207 128.88ZM878.055 142.32C878.055 147.024 881.799 150.768 886.599 150.768C891.303 150.768 895.047 147.024 895.047 142.32C895.047 137.52 891.303 133.776 886.599 133.776C881.799 133.776 878.055 137.52 878.055 142.32Z" fill="white"/>
</g>
<defs>
<linearGradient id="paint0_linear" x1="1214" y1="2.99996" x2="-41" y2="423" gradientUnits="userSpaceOnUse">
<stop stop-color="#6A4C91"/>
<stop offset="1" stop-color="#6DA2BF"/>
</linearGradient>
<clipPath id="clip0">
<rect width="1140" height="342" fill="white"/>
</clipPath>
</defs>
</svg>
